<?xml version="1.0" encoding="UTF-8"?>
<svg version="1.1" xmlns="http://www.w3.org/2000/svg" width="2000" height="322">
<path d="M0 0 C1.16173233 -0.00571014 2.32346466 -0.01142029 3.520401 -0.01730347 C4.7863913 -0.01842133 6.05238159 -0.01953918 7.35673523 -0.02069092 C8.71080662 -0.02532329 10.06487672 -0.03034851 11.41894531 -0.03573608 C15.0931596 -0.04883079 18.76735563 -0.05530053 22.44158959 -0.05974674 C24.7438298 -0.06268514 27.04606511 -0.06679161 29.34830284 -0.07125092 C36.57033651 -0.08492462 43.79235888 -0.09458915 51.01440459 -0.09845281 C59.31445081 -0.10291879 67.61433114 -0.12039891 75.91432697 -0.1494534 C82.35114598 -0.17119218 88.78791879 -0.18116371 95.22477406 -0.18249393 C99.0583038 -0.18353424 102.89167759 -0.18927357 106.72516823 -0.20731354 C134.14927387 -0.32889376 158.79868805 0.88771674 179.87113953 20.73809814 C192.10577431 33.40527052 195.73023928 48.92436161 195.46879578 66.00372314 C194.7321196 85.52014435 185.17855248 100.45248615 174.91703796 116.43780518 C171.86868675 121.21217529 168.876153 126.02135999 165.87895203 130.82794189 C164.60039859 132.87617666 163.32175202 134.92435328 162.04301453 136.97247314 C161.40525085 137.99421631 160.76748718 139.01595947 160.11039734 140.06866455 C158.23097196 143.07717984 156.34848006 146.08375168 154.46488953 149.08966064 C147.24462738 160.61661245 140.08398716 172.17808851 132.96781921 183.76959229 C128.54757698 190.96086988 124.07346934 198.1149699 119.55131531 205.24249268 C115.95581668 210.91441908 112.40783714 216.61435658 108.87895203 222.32794189 C102.33579284 232.92116044 95.73894976 243.48030357 89.13383484 254.03497314 C87.13835079 257.2253398 85.14506476 260.41707022 83.15238953 263.60919189 C82.48900574 264.67162109 81.82562195 265.73405029 81.14213562 266.82867432 C79.88692701 268.83905036 78.63201979 270.84961464 77.37748718 272.8604126 C73.34978172 279.30912784 69.28291037 285.73199318 65.19145203 292.14044189 C61.73526032 290.98837799 61.50111991 290.47614406 59.72270203 287.46856689 C59.24397644 286.674021 58.76525085 285.8794751 58.27201843 285.06085205 C57.75043152 284.1796167 57.2288446 283.29838135 56.69145203 282.39044189 C51.24584388 273.39082485 45.60103619 264.54877091 39.81645203 255.76544189 C38.99438665 254.51547076 38.17236525 253.2654707 37.35038757 252.01544189 C35.73008683 249.55229999 34.10875803 247.0898384 32.48686218 244.62774658 C18.19960825 222.93187279 4.05842881 201.13933521 -9.55854797 179.01544189 C-10.22620178 177.9309375 -10.89385559 176.84643311 -11.58174133 175.72906494 C-20.80854797 160.68167024 -20.80854797 160.68167024 -20.80854797 158.14044189 C-14.87192536 157.99525066 -8.93524166 157.85298478 -2.99848938 157.7131958 C-0.98740338 157.66545774 1.02366523 157.61698001 3.03471375 157.56768799 C4.00296082 157.54400146 4.97120789 157.52031494 5.96879578 157.49591064 C6.93444458 157.47220398 7.90009338 157.44849731 8.89500427 157.42407227 C11.80004629 157.35938325 14.70498265 157.31464699 17.61039734 157.27032471 C21.21685167 157.20883956 24.7925229 157.0463639 28.38969421 156.78399658 C39.61009348 156.09489554 39.61009348 156.09489554 43.73783875 158.82403564 C45.77987997 161.234858 47.22016965 163.59694323 48.69145203 166.39044189 C49.80420596 168.22646959 50.92140358 170.05981143 52.04301453 171.89044189 C52.56798523 172.78762939 53.09295593 173.68481689 53.63383484 174.60919189 C55.81006471 178.14573598 58.34195369 181.26690087 61.06645203 184.39044189 C61.8682489 185.32372314 62.67004578 186.25700439 63.49613953 187.21856689 C64.05559265 187.85278564 64.61504578 188.48700439 65.19145203 189.14044189 C67.83422295 185.94020869 70.15137372 182.73755974 72.26567078 179.16778564 C72.84155945 178.2009082 73.41744812 177.23403076 74.01078796 176.237854 C74.6272821 175.19508301 75.24377625 174.15231201 75.87895203 173.07794189 C77.23106861 170.80665819 78.58388608 168.53580496 79.93754578 166.26544189 C80.2868515 165.67879257 80.63615723 165.09214325 80.99604797 164.48771667 C84.42463827 158.73480895 87.90717201 153.01515132 91.39356995 147.29711914 C98.75577737 135.21852774 106.01023541 123.0783775 113.21220398 110.90362549 C116.97572783 104.54357543 120.75253121 98.19302105 124.58598328 91.87481689 C125.27722895 90.73313527 125.96847249 89.59145236 126.65971375 88.44976807 C127.92640724 86.3612785 129.19723508 84.2752879 130.47319031 82.19244385 C137.79256751 70.9499918 137.79256751 70.9499918 139.19145203 58.14044189 C134.84511616 54.51849534 130.31387386 54.01727034 124.82223511 54 C123.73301254 53.99428986 122.64378998 53.98857971 121.52156067 53.98269653 C119.73623428 53.98101974 119.73623428 53.98101974 117.9148407 53.97930908 C116.65753647 53.97434418 115.40023224 53.96937927 114.10482788 53.96426392 C110.65842417 53.95116437 107.21203993 53.94469976 103.76561522 53.94025326 C101.61069144 53.93731862 99.45577294 53.93321308 97.30085182 53.92874908 C90.5535024 53.91508069 83.80616509 53.90541078 77.05880278 53.90154719 C69.27935669 53.89706769 61.50008641 53.87952215 53.72069377 53.8505466 C47.70101698 53.82890636 41.68138958 53.81884167 35.66167432 53.81750607 C32.0693045 53.81645973 28.47710009 53.81058853 24.88477135 53.79268646 C20.87515526 53.77309293 16.86590568 53.77750404 12.85624695 53.78399658 C11.67210205 53.7747818 10.48795715 53.76556702 9.26792908 53.756073 C3.16202874 53.78705163 -1.46828194 54.05162334 -6.80854797 57.14044189 C-8.63476757 60.7928811 -7.82528751 64.35308713 -6.80854797 68.14044189 C-5.0359801 72.12549286 -2.87353786 75.89986822 -0.71870422 79.68731689 C1.19145203 83.14044189 1.19145203 83.14044189 3.19145203 88.14044189 C38.83145203 88.14044189 74.47145203 88.14044189 111.19145203 88.14044189 C109.53836447 93.09970458 107.67742857 97.00400966 105.00395203 101.39044189 C104.11190209 102.8778695 103.22138431 104.36621663 102.33207703 105.85528564 C101.59247742 107.09254395 101.59247742 107.09254395 100.8379364 108.35479736 C98.96694654 111.52027694 97.13001824 114.70461908 95.30082703 117.89434814 C94.96681381 118.47636993 94.6328006 119.05839172 94.28866577 119.65805054 C92.61711314 122.5721232 90.94849436 125.48782379 89.28251648 128.40509033 C88.66594177 129.47920166 88.04936707 130.55331299 87.41410828 131.65997314 C86.86504822 132.62008301 86.31598816 133.58019287 85.75028992 134.56939697 C85.23587341 135.4178418 84.72145691 136.26628662 84.19145203 137.14044189 C83.55930896 138.19455214 83.55930896 138.19455214 82.91439533 139.26995754 C81.19145203 141.14044189 81.19145203 141.14044189 78.86239147 141.63987064 C77.9394243 141.63966136 77.01645712 141.63945208 76.06552124 141.63923645 C75.00461777 141.64881378 73.94371429 141.65839111 72.85066223 141.66825867 C71.10449112 141.65364342 71.10449112 141.65364342 69.32304382 141.63873291 C68.09663681 141.64425171 66.8702298 141.64977051 65.60665894 141.65545654 C62.93639092 141.66480006 60.26725389 141.66690835 57.5970974 141.65686226 C53.36284677 141.64128424 49.12899826 141.65499592 44.89477539 141.67289734 C36.6535775 141.7037483 28.41250197 141.70522024 20.17125702 141.70324707 C9.72174872 141.70185592 -0.72766274 141.71247499 -11.17710179 141.7518248 C-15.37233504 141.76663561 -19.56721002 141.76657898 -23.76244795 141.75434697 C-27.013923 141.74845888 -30.26534025 141.76171421 -33.51679993 141.77154541 C-34.65864746 141.76382614 -35.800495 141.75610687 -36.97694397 141.74815369 C-50.55493653 141.67215726 -50.55493653 141.67215726 -62.70705128 146.61917973 C-64.00751286 148.098056 -64.00751286 148.098056 -63.78926086 150.14508057 C-62.48324322 155.24005826 -60.79928582 159.83733683 -58.24604797 164.45294189 C-57.86384094 165.15894531 -57.48163391 165.86494873 -57.08784485 166.59234619 C-51.46829796 176.79327786 -45.29327467 186.68529733 -39.20114136 196.6084137 C-35.56640128 202.52896084 -31.96087737 208.46700384 -28.35942078 214.40783691 C-27.31192225 216.13487862 -26.26320994 217.86117694 -25.21406555 219.58721924 C-21.89635028 225.04613723 -18.58418144 230.50824623 -15.28788757 235.98013306 C-13.73359179 238.55964433 -12.17668873 241.13757721 -10.61958313 243.71539307 C-9.87918303 244.94279688 -9.14005636 246.17096989 -8.40229797 247.39996338 C-7.3782 249.10577363 -6.34932488 250.8087131 -5.32026672 252.51153564 C-4.73720764 253.48018555 -4.15414856 254.44883545 -3.55342102 255.44683838 C-1.82762345 258.21740817 -1.82762345 258.21740817 0.41093445 260.86724854 C2.19145203 263.14044189 2.19145203 263.14044189 2.19145203 265.14044189 C9.26285068 267.49757478 16.19289445 266.03835581 23.19145203 264.14044189 C25.64067078 263.67950439 25.64067078 263.67950439 28.19145203 264.14044189 C29.96461856 266.25700335 31.29294866 268.1664139 32.69145203 270.51544189 C33.55060883 271.88912387 34.41410402 273.26009937 35.28129578 274.62872314 C35.74261902 275.35913818 36.20394226 276.08955322 36.679245 276.84210205 C39.88320979 281.71167334 43.44945092 286.34215455 46.98832703 290.97198486 C52.22123163 298.01835065 52.22123163 298.01835065 52.19145203 303.14044189 C48.35065125 311.46507343 37.21455956 317.01255494 29.19926453 320.41387939 C14.86574908 325.60071572 -3.31317931 322.69121596 -16.76972961 316.52593994 C-36.53986024 307.01872829 -46.97737514 291.42720358 -57.95600891 273.20977783 C-59.87753456 270.02614308 -61.81408624 266.85204999 -63.75386047 263.67950439 C-71.8894568 250.35447261 -79.89947358 236.95901724 -87.83872986 223.5161438 C-92.64054725 215.38968269 -97.51883573 207.33338944 -102.62104797 199.39044189 C-115.35700888 179.48258728 -122.98121167 157.93954904 -118.12495422 134.02325439 C-113.81283948 119.10083241 -104.11078469 107.01551784 -90.80854797 99.14044189 C-80.9718036 93.73753372 -70.61150929 90.88058696 -59.80854797 88.14044189 C-60.09729797 87.12208252 -60.38604797 86.10372314 -60.68354797 85.05450439 C-65.86052094 65.76354103 -65.34016032 48.50197918 -55.88276672 30.53887939 C-50.04645931 20.97656781 -42.5363694 14.51362399 -32.80854797 9.14044189 C-32.15499329 8.75372314 -31.5014386 8.36700439 -30.82807922 7.96856689 C-21.76688342 2.94530269 -10.34111561 0.03054695 0 0 Z " fill="#1F1A5B" transform="translate(118.80854797363281,-0.14044189453125)"/>
<path d="M0 0 C5.42310803 4.97292725 10.49115955 10.05007901 15.0234375 15.85546875 C15.67828125 15.09363281 16.333125 14.33179688 17.0078125 13.546875 C34.86721934 -6.83120863 56.81110947 -16.29390745 83.4765625 -18.33203125 C105.85752053 -19.01541928 128.53048591 -11.35231778 145.0234375 3.85546875 C158.18748806 16.70231327 167.40584546 33.23532271 168.14648533 51.96759605 C168.14556354 53.08296556 168.14464174 54.19833508 168.14369202 55.34750366 C168.14575401 57.27830276 168.14575401 57.27830276 168.14785767 59.24810791 C168.1443192 60.66198754 168.1406844 62.07586693 168.13696289 63.48974609 C168.13668062 64.98814899 168.13683953 66.48655202 168.1374054 67.98495483 C168.13769182 72.04233355 168.13182003 76.09968259 168.12483144 80.15705442 C168.11857222 84.40113899 168.11799207 88.64522427 168.11680603 92.88931274 C168.11370029 100.92146086 168.1054971 108.95359533 168.09545654 116.98573744 C168.0842719 126.13201266 168.07877903 135.27828854 168.07376111 144.42456889 C168.06331386 163.23487814 168.04497778 182.0451687 168.0234375 200.85546875 C151.8534375 200.85546875 135.6834375 200.85546875 119.0234375 200.85546875 C119.00156372 194.96743408 119.00156372 194.96743408 118.97924805 188.96044922 C118.92879547 175.95650286 118.86232928 162.95267907 118.78772259 149.94885063 C118.74289879 142.06861592 118.70345383 134.18842504 118.67700195 126.30810547 C118.65391253 119.43367228 118.62039416 112.55937941 118.57473594 105.68505776 C118.55095001 102.05053501 118.53212608 98.41614996 118.52582359 94.78155136 C118.5185637 90.70817309 118.48800342 86.63526939 118.45581055 82.56201172 C118.45796318 80.78606628 118.45796318 80.78606628 118.4601593 78.97424316 C118.31023372 65.46323896 116.310962 52.91010109 107.01953125 42.640625 C97.58973325 33.58194606 86.07114439 29.94801464 73.2109375 29.54296875 C60.59616084 29.81790619 48.7187942 33.45044414 39.2109375 41.98046875 C29.45444159 52.55782369 27.72861419 65.43700395 27.70458984 79.15625 C27.69454422 80.47415024 27.6844986 81.79205048 27.67414856 83.14988708 C27.64698434 86.74226182 27.63173975 90.33459763 27.61872053 93.92704773 C27.60303017 97.68936598 27.57625895 101.45160545 27.5506897 105.21386719 C27.50400603 112.32863882 27.46721173 119.44342545 27.43401682 126.55827141 C27.39572161 134.66234189 27.34633096 142.76633305 27.29603267 150.87033653 C27.19286775 167.53199559 27.10502186 184.19368792 27.0234375 200.85546875 C10.5234375 200.85546875 -5.9765625 200.85546875 -22.9765625 200.85546875 C-22.9859082 196.80370361 -22.99525391 192.75193848 -23.00488281 188.57739258 C-23.03871094 175.16231084 -23.0940934 161.74738984 -23.16046524 148.33243275 C-23.20016812 140.20216888 -23.23260483 132.07200057 -23.24755859 123.94165039 C-23.26062073 116.85002397 -23.28770073 109.7586086 -23.33117557 102.66710109 C-23.35368861 98.91687381 -23.36947935 95.16690583 -23.36844635 91.416605 C-23.36769365 87.87631865 -23.38588462 84.33660328 -23.41773033 80.79646492 C-23.43012059 78.89890631 -23.42321305 77.00125127 -23.41542053 75.10366821 C-23.56381612 62.70756104 -26.42057264 51.16543473 -34.9765625 41.85546875 C-45.44586615 32.56530169 -57.81478099 29.50014334 -71.53515625 29.640625 C-82.1042909 30.30044612 -93.5461871 34.00181995 -101.5390625 41.22265625 C-111.02936654 52.00240377 -113.42489303 62.55633569 -113.40893555 76.54516602 C-113.41796799 77.90609112 -113.42829882 79.26700812 -113.43981934 80.62791443 C-113.46724177 84.29670788 -113.47665359 87.96534635 -113.48267341 91.63422894 C-113.4920958 95.47797028 -113.51830212 99.3215976 -113.54267883 103.16526794 C-113.5862417 110.43230194 -113.61485121 117.69931367 -113.63800222 124.96643823 C-113.66510886 133.2446691 -113.70901685 141.52278467 -113.75429094 149.800933 C-113.84699088 166.8190651 -113.916521 183.83718533 -113.9765625 200.85546875 C-130.4765625 200.85546875 -146.9765625 200.85546875 -163.9765625 200.85546875 C-163.9765625 130.23546875 -163.9765625 59.61546875 -163.9765625 -13.14453125 C-147.4765625 -13.14453125 -130.9765625 -13.14453125 -113.9765625 -13.14453125 C-113.4815625 -4.23453125 -113.4815625 -4.23453125 -112.9765625 4.85546875 C-110.718125 2.87546875 -110.718125 2.87546875 -108.4140625 0.85546875 C-78.27157479 -23.71510852 -30.39821226 -25.44831179 0 0 Z " fill="#201A5B" transform="translate(849.9765625,91.14453125)"/>
<path d="M0 0 C0 -6.93 0 -13.86 0 -21 C15.84 -21 31.68 -21 48 -21 C48 49.62 48 120.24 48 193 C32.16 193 16.32 193 0 193 C-0.33 186.07 -0.66 179.14 -1 172 C-3.083125 173.381875 -5.16625 174.76375 -7.3125 176.1875 C-13.31628725 180.08301789 -19.31976857 183.38049234 -26 186 C-26.88429688 186.35707031 -27.76859375 186.71414063 -28.6796875 187.08203125 C-54.31086417 196.56059658 -84.36413482 195.24447128 -109.25 184.17578125 C-136.54658213 171.34446535 -156.95382179 148.73854534 -167.17041016 120.48095703 C-176.5836281 92.32995033 -173.19457227 62.51172004 -160.59765625 36.0546875 C-148.65594989 12.83286517 -127.62298869 -6.12566688 -103 -15 C-66.27403534 -26.60275872 -31.79352668 -21.19568445 0 0 Z M-114.05078125 47.47265625 C-123.60993672 60.38877424 -128.62042502 75.90499195 -127 92 C-124.28278842 109.01583998 -117.02075908 123.9314925 -103.3125 134.75 C-88.21681824 145.53262983 -71.85837316 149.83554719 -53.515625 146.78515625 C-36.25221924 142.9296623 -22.23726416 133.49585046 -12.6875 118.625 C-4.31441799 104.38075291 -1.4186972 88.28957938 -4.68359375 71.9609375 C-8.01171503 59.50464957 -13.94048222 50.07505726 -23 41 C-23.63808594 40.3503125 -24.27617188 39.700625 -24.93359375 39.03125 C-35.46620909 29.04606789 -50.74271385 24.00355678 -65.125 23.5625 C-84.63645523 24.43026014 -101.58348639 32.44066073 -114.05078125 47.47265625 Z " fill="#201A5B" transform="translate(544,99)"/>
<path d="M0 0 C0 -6.93 0 -13.86 0 -21 C15.84 -21 31.68 -21 48 -21 C48 49.62 48 120.24 48 193 C32.16 193 16.32 193 0 193 C-0.33 186.07 -0.66 179.14 -1 172 C-2.299375 172.99 -3.59875 173.98 -4.9375 175 C-27.64731256 190.83583818 -56.04463307 196.17084729 -83.1875 191.8125 C-104.19009633 188.05195339 -121.9681642 178.88731751 -138 165 C-138.74507812 164.35675781 -139.49015625 163.71351563 -140.2578125 163.05078125 C-158.99414638 145.56606482 -170.77109726 119.17603276 -172.12304688 93.67944336 C-173.15925719 61.88863716 -164.02699511 34.88612135 -142.44140625 11.19140625 C-127.75136024 -4.18090604 -109.40057848 -13.6846594 -89 -19 C-88.06671875 -19.24621094 -87.1334375 -19.49242188 -86.171875 -19.74609375 C-56.40775307 -26.05573948 -24.12648316 -18.09486237 0 0 Z M-112.50390625 45.8203125 C-123.14174022 59.24466312 -128.4411679 75.68840211 -126.71875 92.79296875 C-124.48513231 109.39476176 -115.91232702 124.36320602 -103 135 C-87.90822285 145.35324522 -71.70765006 149.810482 -53.515625 146.78515625 C-37.36681862 143.17858949 -23.15606592 134.43129471 -13.73828125 120.703125 C-4.05922797 105.08545041 -1.03085831 88.58300352 -5.05859375 70.6953125 C-7.40504725 61.4847523 -11.22620534 54.53378909 -17 47 C-17.64195312 46.15824219 -18.28390625 45.31648438 -18.9453125 44.44921875 C-29.65660231 31.68119838 -45.79103948 25.19927902 -62.0546875 23.72265625 C-81.52424641 23.07711385 -99.627985 31.31732476 -112.50390625 45.8203125 Z " fill="#201A5B" transform="translate(1207,99)"/>
<path d="M0 0 C-1.53140696 4.82978941 -3.55955359 8.93827008 -6.1875 13.25 C-7.07954993 14.73742761 -7.97006772 16.22577474 -8.859375 17.71484375 C-9.59897461 18.95210205 -9.59897461 18.95210205 -10.35351562 20.21435547 C-12.22450548 23.37983505 -14.06143379 26.56417719 -15.890625 29.75390625 C-16.22463821 30.33592804 -16.55865143 30.91794983 -16.90278625 31.51760864 C-18.57433889 34.43168131 -20.24295766 37.3473819 -21.90893555 40.26464844 C-22.52551025 41.33875977 -23.14208496 42.41287109 -23.77734375 43.51953125 C-24.32640381 44.47964111 -24.87546387 45.43975098 -25.44116211 46.42895508 C-25.95557861 47.2773999 -26.46999512 48.12584473 -27 49 C-27.63214306 50.05411025 -27.63214306 50.05411025 -28.27705669 51.12951565 C-30 53 -30 53 -32.32906055 53.49942875 C-33.25202773 53.49921947 -34.17499491 53.49901018 -35.12593079 53.49879456 C-36.18683426 53.50837189 -37.24773773 53.51794922 -38.34078979 53.52781677 C-39.50490387 53.51807327 -40.66901794 53.50832977 -41.8684082 53.49829102 C-43.09481522 53.50380981 -44.32122223 53.50932861 -45.58479309 53.51501465 C-48.25506111 53.52435817 -50.92419814 53.52646646 -53.59435463 53.51642036 C-57.82860525 53.50084234 -62.06245377 53.51455402 -66.29667664 53.53245544 C-74.53787452 53.56330641 -82.77895006 53.56477835 -91.02019501 53.56280518 C-101.4697033 53.56141403 -111.91911477 53.57203309 -122.36855382 53.6113829 C-126.56378707 53.62619372 -130.75866205 53.62613708 -134.95389998 53.61390507 C-138.20537503 53.60801698 -141.45679227 53.62127231 -144.70825195 53.63110352 C-145.85009949 53.62338425 -146.99194702 53.61566498 -148.168396 53.60771179 C-161.74638856 53.53171536 -161.74638856 53.53171536 -173.8985033 58.47873783 C-175.19896488 59.95761411 -175.19896488 59.95761411 -174.98071289 62.00463867 C-173.67469524 67.09961637 -171.99073785 71.69689494 -169.4375 76.3125 C-169.05529297 77.01850342 -168.67308594 77.72450684 -168.27929688 78.4519043 C-162.65974999 88.65283596 -156.4847267 98.54485544 -150.39259338 108.4679718 C-146.7578533 114.38851895 -143.15232939 120.32656194 -139.5508728 126.26739502 C-138.50337428 127.99443673 -137.45466196 129.72073504 -136.40551758 131.44677734 C-133.08780231 136.90569534 -129.77563346 142.36780434 -126.4793396 147.83969116 C-124.92504382 150.41920244 -123.36814076 152.99713531 -121.81103516 155.57495117 C-121.07063506 156.80235499 -120.33150838 158.030528 -119.59375 159.25952148 C-118.56965202 160.96533174 -117.54077691 162.66827121 -116.51171875 164.37109375 C-115.92865967 165.33974365 -115.34560059 166.30839355 -114.74487305 167.30639648 C-113.01907547 170.07696627 -113.01907547 170.07696627 -110.78051758 172.72680664 C-109 175 -109 175 -109 177 C-101.92860135 179.35713288 -94.99855757 177.89791392 -88 176 C-85.55078125 175.5390625 -85.55078125 175.5390625 -83 176 C-81.22683347 178.11656146 -79.89850337 180.02597201 -78.5 182.375 C-77.6408432 183.74868198 -76.77734801 185.11965747 -75.91015625 186.48828125 C-75.44883301 187.21869629 -74.98750977 187.94911133 -74.51220703 188.70166016 C-71.30824224 193.57123144 -67.7420011 198.20171266 -64.203125 202.83154297 C-58.9702204 209.87790876 -58.9702204 209.87790876 -59 215 C-62.84080077 223.32463154 -73.97689247 228.87211304 -81.9921875 232.2734375 C-96.32570294 237.46027383 -114.50463133 234.55077407 -127.96118164 228.38549805 C-147.73131227 218.8782864 -158.16882717 203.28676169 -169.14746094 185.06933594 C-171.06898659 181.88570119 -173.00553827 178.7116081 -174.9453125 175.5390625 C-183.08090883 162.21403072 -191.09092561 148.81857535 -199.03018188 135.3757019 C-203.83199928 127.2492408 -208.71028776 119.19294755 -213.8125 111.25 C-226.5484609 91.34214539 -234.1726637 69.79910714 -229.31640625 45.8828125 C-225.00488324 30.96243825 -215.30274029 18.87189183 -202 11 C-184.32985734 1.31517873 -167.41442216 0.35230871 -147.70287323 0.26157761 C-144.96666645 0.24585907 -142.2306918 0.2154813 -139.49460983 0.18551159 C-93.00147973 -0.31609974 -46.49489876 -0.08647569 0 0 Z " fill="#009EE1" transform="translate(230,88)"/>
<path d="M0 0 C16.17 0 32.34 0 49 0 C49 95.7 49 191.4 49 290 C32.83 290 16.66 290 0 290 C0 194.3 0 98.6 0 0 Z " fill="#201A5B" transform="translate(615,2)"/>
<path d="M0 0 C7.92 0 15.84 0 24 0 C24.33 57.75 24.66 115.5 25 175 C30.28 170.05 35.56 165.1 41 160 C43.64 157.69 46.28 155.38 49 153 C50.67052462 151.50429773 52.33780832 150.00495734 54 148.5 C56.95869751 145.82951656 59.92926472 143.17701942 62.9375 140.5625 C67.13303221 136.90942044 71.23373553 133.15494451 75.34375 129.40625 C78.16722669 126.84851229 81.03056002 124.34230031 83.90625 121.84375 C86.46419027 119.59123543 88.9817898 117.29682908 91.5 115 C95.26350521 111.56735239 99.06129351 108.1844499 102.90625 104.84375 C105.46419027 102.59123543 107.9817898 100.29682908 110.5 98 C114.95139578 93.94209777 119.43904605 89.93425799 124 86 C124.40613525 85.49710449 124.81227051 84.99420898 125.23071289 84.47607422 C128.11009551 81.31364946 130.17156146 80.11520018 134.46923828 79.51757812 C138.6416256 79.40948255 142.76850766 79.47548612 146.9375 79.625 C148.39903366 79.65513471 149.8606271 79.68250437 151.32226562 79.70703125 C154.88276374 79.77275781 158.44099692 79.87608149 162 80 C155.83263556 87.37890212 155.83263556 87.37890212 152.25 90.375 C149.12194365 93.03742964 146.04595874 95.74368764 143 98.5 C137.67665307 103.29907792 132.31136661 108.0407795 126.84765625 112.6796875 C119.7097858 118.74798107 112.73830738 124.95102183 105.87890625 131.33203125 C101.3086082 135.5674635 96.60835337 139.63526191 91.859375 143.66796875 C85.27737467 149.26658964 78.80981768 154.95125413 72.48486328 160.83935547 C68.39467806 164.64684971 64.22963508 168.34915709 60 172 C58.49919743 173.31158221 56.99918933 174.6240741 55.5 175.9375 C54.33333333 176.95833333 53.16666667 177.97916667 52 179 C53.38595002 182.15755946 54.96948451 184.16678216 57.4921875 186.50390625 C58.19126221 187.15657471 58.89033691 187.80924316 59.6105957 188.48168945 C60.35784912 189.16835693 61.10510254 189.85502441 61.875 190.5625 C62.64223389 191.27559326 63.40946777 191.98868652 64.19995117 192.72338867 C66.46099465 194.82179776 68.72921851 196.91213828 71 199 C71.58765137 199.54205078 72.17530273 200.08410156 72.78076172 200.64257812 C76.17597898 203.77405883 79.58640758 206.88857897 83 210 C85.00123556 211.8319867 87.00060261 213.6660076 89 215.5 C89.99996625 216.41670349 90.99996619 217.33337022 92 218.25 C102 227.41666667 112 236.58333333 122 245.75 C122.49491943 246.20366943 122.98983887 246.65733887 123.49975586 247.12475586 C124.50059668 248.04220685 125.50141045 248.95968736 126.50219727 249.87719727 C128.98911261 252.15710551 131.47648315 254.43651293 133.96484375 256.71484375 C139.74293588 262.0065197 145.50769322 267.31208555 151.25634766 272.63574219 C155.5444191 276.59937431 159.89086694 280.49194141 164.26953125 284.35546875 C164.84058594 284.89816406 165.41164063 285.44085938 166 286 C166 286.33 166 286.66 166 287 C161.50215171 287.27503306 157.00892436 287.47286539 152.50512695 287.60424805 C150.97886842 287.65907309 149.45317423 287.73377737 147.92895508 287.82983398 C135.3137203 288.60405417 135.3137203 288.60405417 129.75244141 284.74853516 C126.90930661 282.05566829 124.48046821 279.0256601 122 276 C120.6312111 274.71982775 119.23301916 273.46974875 117.796875 272.265625 C113.83469259 268.87580261 110.03858486 265.33178951 106.25 261.75 C100.51185663 256.34763096 94.74064591 250.98740086 88.921875 245.671875 C85.79356015 242.81122345 82.6763228 239.9389025 79.5625 237.0625 C79.02214111 236.56339111 78.48178223 236.06428223 77.92504883 235.55004883 C76.83035108 234.53879388 75.73570604 233.52748188 74.64111328 232.51611328 C71.92822414 230.00985896 69.21405141 227.50499554 66.5 225 C65.41666043 224.00000676 64.33332709 223.00000676 63.25 222 C62.445625 221.2575 62.445625 221.2575 61.625 220.5 C56.75 216 56.75 216 55.12402344 214.49902344 C54.04404521 213.50217041 52.96396757 212.50542507 51.88378906 211.50878906 C49.12328469 208.96152824 46.364698 206.41224029 43.609375 203.859375 C43.04669922 203.33859375 42.48402344 202.8178125 41.90429688 202.28125 C40.85285018 201.30801009 39.80199994 200.3341251 38.75195312 199.359375 C34.2242851 195.17083586 29.61347522 191.10086686 25 187 C24.67 220 24.34 253 24 287 C16.08 287 8.16 287 0 287 C0 192.29 0 97.58 0 0 Z " fill="#009FE2" transform="translate(1679,6)"/>
<path d="M0 0 C1.58101037 1.35367554 3.14410211 2.72859239 4.6875 4.125 C5.44546875 4.79015625 6.2034375 5.4553125 6.984375 6.140625 C22.09794796 20.21188258 30.41382884 40.30610804 31.95918846 60.71265984 C32.05171296 64.34106595 32.05949831 67.95821381 32.02807617 71.58764648 C32.02722684 72.95929953 32.02771099 74.33095394 32.02940369 75.7026062 C32.03025314 79.37321266 32.01280097 83.04351599 31.99168181 86.71405292 C31.97273669 90.56969272 31.9711507 94.42534194 31.96760559 98.28102112 C31.95833688 105.55856879 31.9337944 112.83597884 31.90355712 120.11346632 C31.86985047 128.40867915 31.85348651 136.70389908 31.83847082 144.99916351 C31.80723925 162.04119044 31.7539662 179.08307532 31.6875 196.125 C24.0975 196.125 16.5075 196.125 8.6875 196.125 C8.68163376 194.53187988 8.67576752 192.93875977 8.66972351 191.29736328 C8.61233862 176.23290875 8.5396684 161.16861393 8.45178509 146.10430908 C8.40699629 138.36089446 8.36754366 130.61752411 8.34106445 122.87402344 C8.31794625 116.11749729 8.28439697 109.36111322 8.23879844 102.60470009 C8.21505054 99.03382963 8.19620211 95.46309825 8.18988609 91.89215088 C8.14113196 67.5784171 7.65271675 43.88711554 -9.4921875 24.68359375 C-23.10448104 11.49528968 -40.78202597 6.92179602 -59.3125 7.125 C-73.767667 7.96187809 -86.61767892 12.64577621 -98.3125 21.125 C-98.94542969 21.56199219 -99.57835937 21.99898437 -100.23046875 22.44921875 C-112.28364311 31.63390311 -118.99135178 47.5726358 -121.3125 62.125 C-121.60774605 66.56616131 -121.62347258 70.99759492 -121.63134766 75.44750977 C-121.64139328 76.75580246 -121.6514389 78.06409515 -121.66178894 79.41203308 C-121.68891704 82.97335781 -121.70418685 86.53464337 -121.71721697 90.09604383 C-121.73292338 93.82765993 -121.75968936 97.55919693 -121.7852478 101.29075623 C-121.83190334 108.34528724 -121.86871113 115.39983337 -121.90192068 122.4544391 C-121.94023593 130.49081969 -121.98962123 138.52712055 -122.03990483 146.56343377 C-122.14302781 163.08389943 -122.23195896 179.60440863 -122.3125 196.125 C-130.2325 196.125 -138.1525 196.125 -146.3125 196.125 C-146.3125 127.815 -146.3125 59.505 -146.3125 -10.875 C-138.3925 -10.875 -130.4725 -10.875 -122.3125 -10.875 C-121.9825 -0.975 -121.6525 8.925 -121.3125 19.125 C-115.18316461 12.31639437 -115.18316461 12.31639437 -109.0625 5.5 C-81.54216394 -21.5107002 -29.98893891 -23.19637493 0 0 Z " fill="#009FE2" transform="translate(1607.3125,96.875)"/>
<path d="M0 0 C5.45424385 4.44005795 11.04648832 9.13789648 15 15 C14.65372687 18.28408863 13.43081922 19.94549107 11.12890625 22.234375 C10.55462891 22.80800781 9.98035156 23.38164063 9.38867188 23.97265625 C8.4847168 24.85244141 8.4847168 24.85244141 7.5625 25.75 C6.96373047 26.35199219 6.36496094 26.95398438 5.74804688 27.57421875 C1.26706881 32 1.26706881 32 -1 32 C-2.02649277 30.87474845 -2.99587696 29.69717355 -3.9375 28.5 C-14.83035531 15.75784006 -30.64368107 9.1860474 -47 7 C-63.29134654 6.04113895 -79.73426285 6.63535599 -92.875 17.55859375 C-98.55671486 23.48178149 -101.15657223 31.46905216 -101.5 39.5625 C-101.17039628 47.26424019 -98.40745402 54.67608101 -93.02734375 60.29296875 C-79.96959095 71.28764692 -62.62072931 74.97337448 -46.57421875 79.5546875 C-35.23606848 82.80939845 -24.58424961 86.76730621 -14 92 C-13.02417969 92.48082031 -12.04835938 92.96164063 -11.04296875 93.45703125 C1.54853242 100.33774134 9.87565613 111.03237008 14.12890625 124.6015625 C17.90756158 140.66512646 16.11576817 158.75195604 7.6875 172.875 C-2.62929274 187.92486679 -18.32932874 195.75197416 -35.921875 199.44140625 C-63.87018053 204.51324342 -92.1125687 199.23779135 -116 184 C-124.10045791 178.25931103 -131.15918498 171.15899247 -138 164 C-136.68692628 161.10147635 -135.27315362 159.01722783 -133.03125 156.765625 C-132.17466797 155.90517578 -132.17466797 155.90517578 -131.30078125 155.02734375 C-130.40939453 154.14755859 -130.40939453 154.14755859 -129.5 153.25 C-128.90574219 152.64800781 -128.31148437 152.04601562 -127.69921875 151.42578125 C-126.84263672 150.57306641 -126.84263672 150.57306641 -125.96875 149.703125 C-125.44732422 149.18395508 -124.92589844 148.66478516 -124.38867188 148.12988281 C-123 147 -123 147 -121 147 C-119.66033077 148.60700233 -118.37919839 150.26293841 -117.125 151.9375 C-105.07059276 166.94282614 -86.96885322 175.62047522 -68 178 C-51.03210425 178.96142492 -34.59610416 178.8157207 -20 169 C-19.0925 168.4225 -18.185 167.845 -17.25 167.25 C-10.9161898 160.9161898 -8.30755887 152.84405224 -7.75 144.0625 C-8.05744315 135.30037034 -10.44221941 127.89164793 -16 121 C-25.41994125 112.42005351 -37.04813765 108.09606235 -49 104.25 C-50.01892334 103.91419922 -51.03784668 103.57839844 -52.08764648 103.23242188 C-57.72613147 101.37586319 -63.3770391 99.56135695 -69.03515625 97.765625 C-109.69216096 84.74322775 -109.69216096 84.74322775 -120 65 C-122.75250934 58.81349188 -124.70265064 52.77708743 -125 46 C-125.0515625 45.11957031 -125.103125 44.23914063 -125.15625 43.33203125 C-125.64178895 28.01732345 -121.52170245 14.15649671 -110.96875 2.83984375 C-104.27205031 -3.41838156 -96.55331944 -7.80764139 -88 -11 C-86.96746094 -11.39445312 -85.93492188 -11.78890625 -84.87109375 -12.1953125 C-58.06332527 -20.61136276 -22.92231271 -16.23206833 0 0 Z " fill="#009FE2" transform="translate(1985,97)"/>
<path d="M0 0 C7.92 0 15.84 0 24 0 C24 94.71 24 189.42 24 287 C16.08 287 8.16 287 0 287 C0 192.29 0 97.58 0 0 Z " fill="#009FE2" transform="translate(1326,6)"/>
<path d="M0 0 C7.92 0 15.84 0 24 0 C24 68.31 24 136.62 24 207 C16.08 207 8.16 207 0 207 C0 138.69 0 70.38 0 0 Z " fill="#009FE2" transform="translate(1393,86)"/>
<path d="M0 0 C11.55 0 23.1 0 35 0 C33.34691244 4.95926268 31.48597655 8.86356777 28.8125 13.25 C27.92045007 14.73742761 27.02993228 16.22577474 26.140625 17.71484375 C25.64755859 18.53968262 25.15449219 19.36452148 24.64648438 20.21435547 C22.77549452 23.37983505 20.93856621 26.56417719 19.109375 29.75390625 C18.77536179 30.33592804 18.44134857 30.91794983 18.09721375 31.51760864 C16.42566111 34.43168131 14.75704234 37.3473819 13.09106445 40.26464844 C12.47448975 41.33875977 11.85791504 42.41287109 11.22265625 43.51953125 C10.67359619 44.47964111 10.12453613 45.43975098 9.55883789 46.42895508 C8.14285461 48.76438498 6.80352694 50.94809025 5 53 C2.09375 53.42578125 2.09375 53.42578125 -1.5 53.3125 C-2.14203369 53.29703125 -2.78406738 53.2815625 -3.44555664 53.265625 C-5.63217549 53.20337989 -7.81503218 53.10513924 -10 53 C-10.84546387 52.96181152 -11.69092773 52.92362305 -12.56201172 52.88427734 C-18.04405712 52.63101149 -23.52208076 52.33020826 -29 52 C-25.4451523 44.61739903 -21.48709436 37.54756925 -17.3125 30.5 C-11.38102978 20.41603 -5.63798773 10.25088679 0 0 Z " fill="#F9AE18" transform="translate(195,88)"/>
<path d="M0 0 C4.56728761 3.34191777 8.08008736 7.3496438 9.5625 12.875 C10.08298415 18.39213194 9.39836023 23.10814284 6.5625 27.875 C2.74477303 32.00291729 -0.88971895 35.49665272 -6.671875 36.11328125 C-12.90398207 36.29714776 -16.39495524 35.60648312 -21.4375 31.875 C-26.76327787 26.1174023 -27.9636523 21.6684302 -27.8125 13.921875 C-27.04551494 7.6901214 -24.12615335 4.25349253 -19.375 0.375 C-13.42233532 -2.56217007 -6.14279769 -2.01037015 0 0 Z " fill="#009FE2" transform="translate(1414.4375,3.125)"/>
</svg>
